<svg xmlns="http://www.w3.org/2000/svg" viewBox="0 0 100 100"><rect width="100" height="100" rx="20" fill="#fbfaf6"/><path transform="translate(26.36 74.03) scale(0.0554 -0.0554)" fill="#1c1b18" d="M935 698Q935 641 920.0 593.0Q905 545 881.5 501.0Q858 457 831.0 414.0Q804 371 780 323Q774 323 771.5 320.0Q769 317 767.5 312.5Q766 308 763.5 304.5Q761 301 755 301Q746 279 732.0 259.5Q718 240 702.5 221.5Q687 203 672.5 184.0Q658 165 647 143H637Q583 65 515.5 3.0Q448 -59 368 -108Q366 -114 362.0 -118.0Q358 -122 360 -129Q349 -135 341.5 -144.5Q334 -154 327.0 -164.0Q320 -174 312.5 -183.5Q305 -193 293 -198Q278 -195 264.5 -193.0Q251 -191 237 -190Q231 -190 225.0 -190.5Q219 -191 214 -190Q203 -188 195.5 -181.5Q188 -175 174 -175Q167 -175 163 -176Q155 -162 144.5 -147.5Q134 -133 134 -116Q134 -103 137.5 -92.0Q141 -81 141 -69Q141 -45 132.5 -22.0Q124 1 124 25Q124 33 126.0 40.5Q128 48 128 56Q128 65 120 72Q121 77 124.0 82.0Q127 87 127 93Q129 101 128.0 110.5Q127 120 127 128Q127 149 129.0 170.0Q131 191 138 211Q137 217 135 222L131 232Q138 253 140.0 279.0Q142 305 142 331V384Q142 410 145 433Q147 443 149.5 452.5Q152 462 152 471Q152 479 149.0 485.5Q146 492 141 498Q148 500 149.0 506.5Q150 513 150 518Q150 532 145 549Q149 566 150.0 583.5Q151 601 151 618Q151 678 143.5 736.0Q136 794 134 853H131Q124 853 120.0 850.0Q116 847 112.0 843.5Q108 840 103.0 837.5Q98 835 91 836Q79 822 63.5 812.0Q48 802 31.0 794.0Q14 786 -4.0 779.5Q-22 773 -38 767Q-52 772 -62.0 783.5Q-72 795 -81 807Q-82 811 -82 815V823Q-82 851 -69.0 865.5Q-56 880 -41 900H-36Q-31 900 -27.5 898.0Q-24 896 -19 896H-16Q13 920 45.5 934.5Q78 949 113 957Q128 972 143.5 980.0Q159 988 180 988Q185 988 191.5 987.5Q198 987 203 986Q244 1005 280.5 1018.5Q317 1032 365 1032Q371 1032 373.5 1035.0Q376 1038 378.0 1041.5Q380 1045 382.0 1048.0Q384 1051 389 1051Q389 1049 390.0 1045.0Q391 1041 395 1041Q399 1041 402.5 1043.5Q406 1046 411 1046Q416 1046 418 1039Q429 1046 439.0 1052.0Q449 1058 461 1061Q476 1058 491.5 1056.0Q507 1054 523 1054Q535 1054 547.0 1055.5Q559 1057 568 1065Q572 1066 572 1061Q581 1053 591.0 1050.5Q601 1048 612.0 1047.5Q623 1047 634.0 1046.0Q645 1045 654 1039Q662 1037 667.0 1032.5Q672 1028 680 1025Q686 1023 696.5 1022.0Q707 1021 712 1018Q717 1016 717.5 1011.5Q718 1007 723 1004Q732 997 747.0 995.5Q762 994 773 986Q777 964 795.0 957.0Q813 950 830 943Q836 937 834 929Q846 920 855.5 909.0Q865 898 873.5 885.5Q882 873 890.0 861.0Q898 849 909 839Q908 830 911.5 825.0Q915 820 913 810Q925 799 935 781Q929 772 929 761Q929 751 932.0 741.0Q935 731 935 721ZM842 720Q842 749 831.0 776.5Q820 804 812 831Q799 831 795.5 840.5Q792 850 783 857Q764 861 759 886Q739 894 718.0 904.0Q697 914 683 932Q647 943 610.5 954.5Q574 966 536 966Q529 966 523.5 965.5Q518 965 513 965Q505 965 496.0 962.0Q487 959 479 959Q470 959 461 965Q441 954 417.5 948.0Q394 942 370.0 937.5Q346 933 323.0 926.5Q300 920 282 907Q276 909 270.5 910.0Q265 911 260 911Q251 911 246 907Q243 905 242.5 902.0Q242 899 241.5 895.5Q241 892 239.0 890.0Q237 888 231 889Q231 884 230.5 880.0Q230 876 230 871Q230 845 235.5 819.5Q241 794 241 768Q241 759 240.0 749.5Q239 740 236 731Q241 719 241.5 705.0Q242 691 242.0 677.0Q242 663 243.0 649.5Q244 636 250 624Q247 609 246.0 594.0Q245 579 245 564Q245 529 248.5 495.0Q252 461 252 426Q252 417 251.5 407.0Q251 397 250 387Q248 374 243.0 362.0Q238 350 238 336Q238 327 239.0 317.5Q240 308 240 298Q240 294 239.5 290.5Q239 287 239 283Q234 248 231.0 212.0Q228 176 228 141Q228 108 230.0 75.5Q232 43 236 10Q232 3 232 -6Q232 -20 239.0 -34.5Q246 -49 260 -54Q292 -42 319.5 -22.5Q347 -3 375 17Q382 22 396.0 30.5Q410 39 415 43Q420 47 423.5 51.5Q427 56 432 61L476 108Q514 147 551.5 187.0Q589 227 621 272Q630 286 639.0 299.5Q648 313 656 328Q660 333 662.0 339.5Q664 346 669 351Q672 355 676.5 359.0Q681 363 684 367Q692 376 699.5 385.5Q707 395 715 406Q737 438 756.0 470.5Q775 503 798 535Q800 555 806.0 572.5Q812 590 818.0 606.5Q824 623 828.0 641.0Q832 659 830 681Q835 688 838.5 691.0Q842 694 842 703Z"/></svg>
